HIERARCHY
ROOT Hips
{
	OFFSET 0.000000 0.000000 0.000000
	CHANNELS 6 Xposition Yposition Zposition Zrotation Yrotation Xrotation 
	JOINT LHipJoint
	{
		OFFSET 0.000000 0.000000 0.000000
		CHANNELS 3 Zrotation Yrotation Xrotation
		JOINT LeftUpLeg
		{
			OFFSET 1.363060 -1.794630 0.839290
			CHANNELS 3 Zrotation Yrotation Xrotation
			JOINT LeftLeg
			{
				OFFSET 2.448110 -6.726130 0.000000
				CHANNELS 3 Zrotation Yrotation Xrotation
				JOINT LeftFoot
				{
					OFFSET 2.562200 -7.039590 0.000000
					CHANNELS 3 Zrotation Yrotation Xrotation
					JOINT LeftToeBase
					{
						OFFSET 0.157640 -0.433110 2.322550
						CHANNELS 3 Zrotation Yrotation Xrotation
						End Site
						{
							OFFSET 0.000000 0.000000 0.000000
						}
					}
				}
			}
		}
	}
	JOINT RHipJoint
	{
		OFFSET 0.000000 0.000000 0.000000
		CHANNELS 3 Zrotation Yrotation Xrotation
		JOINT RightUpLeg
		{
			OFFSET -1.305520 -1.794630 0.839290
			CHANNELS 3 Zrotation Yrotation Xrotation
			JOINT RightLeg
			{
				OFFSET -2.542530 -6.985550 0.000000
				CHANNELS 3 Zrotation Yrotation Xrotation
				JOINT RightFoot
				{
					OFFSET -2.568260 -7.056230 0.000000
					CHANNELS 3 Zrotation Yrotation Xrotation
					JOINT RightToeBase
					{
						OFFSET -0.164730 -0.452590 2.363150
						CHANNELS 3 Zrotation Yrotation Xrotation
						End Site
						{
							OFFSET 0.000000 0.000000 0.000000
						}
					}
				}
			}
		}
	}
	JOINT LowerBack
	{
		OFFSET 0.000000 0.000000 0.000000
		CHANNELS 3 Zrotation Yrotation Xrotation
		JOINT Spine
		{
			OFFSET 0.028270 2.035590 -0.193380
			CHANNELS 3 Zrotation Yrotation Xrotation
			JOINT Spine1
			{
				OFFSET 0.056720 2.048850 -0.042750
				CHANNELS 3 Zrotation Yrotation Xrotation
				JOINT Neck
				{
					OFFSET 0.000000 0.000000 0.000000
					CHANNELS 3 Zrotation Yrotation Xrotation
					JOINT Neck1
					{
						OFFSET -0.054170 1.746240 0.172020
						CHANNELS 3 Zrotation Yrotation Xrotation
						JOINT Head
						{
							OFFSET 0.104070 1.761360 -0.123970
							CHANNELS 3 Zrotation Yrotation Xrotation
							End Site
							{
								OFFSET 0.000000 0.000000 0.000000
							}
						}
					}
				}
				JOINT LeftShoulder
				{
					OFFSET 0.000000 0.000000 0.000000
					CHANNELS 3 Zrotation Yrotation Xrotation
					JOINT LeftArm
					{
						OFFSET 3.362410 1.200890 -0.311210
						CHANNELS 3 Zrotation Yrotation Xrotation
						JOINT LeftForeArm
						{
							OFFSET 4.983000 -0.000000 -0.000000
							CHANNELS 3 Zrotation Yrotation Xrotation
							JOINT LeftHand
							{
								OFFSET 3.483560 -0.000000 -0.000000
								CHANNELS 3 Zrotation Yrotation Xrotation
								JOINT LeftFingerBase
								{
									OFFSET 0.000000 0.000000 0.000000
									CHANNELS 3 Zrotation Yrotation Xrotation
									JOINT LeftHandIndex1
									{
										OFFSET 0.715260 -0.000000 -0.000000
										CHANNELS 3 Zrotation Yrotation Xrotation
										End Site
										{
											OFFSET 0.000000 0.000000 0.000000
										}
									}
								}
								JOINT LThumb
								{
									OFFSET 0.000000 0.000000 0.000000
									CHANNELS 3 Zrotation Yrotation Xrotation
									End Site
									{
										OFFSET 0.000000 0.000000 0.000000
									}
								}
							}
						}
					}
				}
				JOINT RightShoulder
				{
					OFFSET 0.000000 0.000000 0.000000
					CHANNELS 3 Zrotation Yrotation Xrotation
					JOINT RightArm
					{
						OFFSET -3.136600 1.374050 -0.404650
						CHANNELS 3 Zrotation Yrotation Xrotation
						JOINT RightForeArm
						{
							OFFSET -5.241900 -0.000000 -0.000000
							CHANNELS 3 Zrotation Yrotation Xrotation
							JOINT RightHand
							{
								OFFSET -3.444170 -0.000000 -0.000000
								CHANNELS 3 Zrotation Yrotation Xrotation
								JOINT RightFingerBase
								{
									OFFSET 0.000000 0.000000 0.000000
									CHANNELS 3 Zrotation Yrotation Xrotation
									JOINT RightHandIndex1
									{
										OFFSET -0.622530 -0.000000 -0.000000
										CHANNELS 3 Zrotation Yrotation Xrotation
										End Site
										{
											OFFSET 0.000000 0.000000 0.000000
										}
									}
								}
								JOINT RThumb
								{
									OFFSET 0.000000 0.000000 0.000000
									CHANNELS 3 Zrotation Yrotation Xrotation
									End Site
									{
										OFFSET 0.000000 0.000000 0.000000
									}
								}
							}
						}
					}
				}
			}
		}
	}
}
MOTION
Frames: 9
Frame Time: 0.008333
13.656004 17.732344 -2.604444 -125.035158 -42.900671 96.254666 -140.289833 76.787206 95.230570 63.416753 -69.031349 -109.776537 -71.869437 -60.996923 132.235073 -96.613540 -23.379487 -138.112424 0.465500 -4.376100 -12.137100 68.165572 -21.309007 13.771298 124.634443 63.416639 -40.418717 -71.227000 68.629829 -46.446875 149.417624 -53.103477 -172.997541 -0.203800 -2.907100 8.020200 -115.288511 -68.071271 26.333817 37.922262 -29.865066 32.269252 -45.658640 73.251474 -127.394230 -60.202876 37.757551 130.116857 17.141192 -22.669327 -5.394399 -8.337900 3.064900 8.929200 114.076229 -32.710305 88.105685 -163.972887 4.402221 -174.606278 121.392247 -7.242125 -6.308546 -58.794075 -32.007563 1.589663 -49.354842 -25.911866 -7.199299 -7.125000 0.000000 0.000000 -5.589900 8.307500 4.746800 153.348214 -74.777403 -36.000253 -29.669718 -42.294012 145.681204 58.736658 40.828179 166.381834 -9.039649 -45.914850 134.526260 -9.463036 79.258620 -21.346300 7.125000 0.000000 0.000000 1.701200 13.698100 2.056500 
14.007828 17.759237 -2.670429 -96.109867 -88.591967 4.718561 52.344410 -27.366611 18.107391 -57.168108 -62.655681 -116.677974 85.926536 -45.558590 10.616830 29.768129 -75.316658 -123.477499 0.593100 -4.930300 -13.709900 -7.948158 -15.100108 52.868200 -35.490628 -83.867953 34.209726 -122.233781 14.327115 -111.795688 118.205112 25.293756 95.697821 -0.117100 -2.206000 6.075400 166.269711 77.330991 73.902103 -139.248876 80.074086 158.434527 51.527757 61.858843 -121.212360 -162.551916 76.792780 -178.311530 -113.831658 -87.756870 -134.032172 -8.450200 3.082400 8.963100 -115.386089 49.864119 80.903021 119.238861 29.561086 -12.236204 114.088891 27.960259 -161.399880 138.423742 32.108720 -61.983636 -64.344633 -40.136197 -7.117200 -7.125000 0.000000 0.000000 -5.664600 8.427400 4.797400 -16.977446 -71.526599 166.176661 -136.909025 87.518817 -19.630249 -166.192222 -16.336045 -174.384862 -53.691973 -3.838996 144.871887 3.573445 23.580605 -21.307600 7.125000 0.000000 0.000000 1.762200 13.736300 2.131100 
14.321393 17.787516 -2.739185 -155.975906 -15.405874 -69.164046 -63.807101 58.779569 20.337468 -121.345129 -9.219747 -67.448064 -46.517618 -27.477223 83.937586 -45.512876 51.796536 85.677785 0.671200 -5.239000 -14.591500 88.373047 63.104059 167.992733 -6.297515 -36.167392 23.875945 -118.391810 -67.295273 -33.082391 50.674252 59.105756 -142.613089 -0.074900 -1.765600 4.858400 -166.044690 -60.798106 134.052398 -35.259727 7.242641 20.099523 -144.329750 -12.885812 -26.852378 -19.931413 -71.389767 126.270319 168.368726 64.777097 -175.548373 -8.686000 3.135300 9.289500 -98.256601 -2.026639 -17.176216 -100.749686 85.731121 171.230060 3.938173 -78.154725 -27.974093 46.106441 -79.657959 87.308281 -27.826268 -8.115976 -7.223900 -7.125000 0.000000 0.000000 -5.609500 8.208900 4.774600 65.038766 40.632742 -177.504066 -102.200724 50.357902 5.264579 99.646022 -8.028386 39.300815 -134.771482 37.349511 164.467536 77.098355 -50.498362 -20.710500 7.125000 0.000000 0.000000 2.124400 13.425400 2.561100 
14.626918 17.823835 -2.808220 178.584369 -52.571204 112.386059 -45.510343 -1.034485 5.156616 -112.708063 -1.410541 175.127665 -63.041397 -10.883179 -155.778768 18.565252 -49.972594 -30.600092 0.665800 -5.218500 -14.532700 24.018355 -3.334699 151.425273 93.308991 -74.742000 -117.489853 97.093895 -9.962745 -77.244382 -4.125991 -70.266064 151.841315 -0.079600 -1.819700 5.007700 -142.570396 69.014448 -59.945190 -172.585205 27.850847 -49.943989 132.009087 49.475955 21.921231 -63.158225 63.528452 54.185857 -135.884078 -5.249565 -113.347751 -8.644500 3.142500 9.181700 -41.861499 30.453168 -86.482725 117.861073 -32.082254 -154.406331 -129.106636 20.739462 -172.000578 153.050536 20.845047 -10.948635 176.758942 -12.955229 -7.319548 -7.125000 0.000000 0.000000 -5.439800 8.195100 4.630300 -21.560974 -6.382386 44.046378 42.377935 -20.398653 94.893555 78.784830 55.241467 164.964589 -82.526022 28.222549 140.836269 31.103742 -30.223488 -20.349400 7.125000 0.000000 0.000000 2.114500 12.869000 2.533800 
14.920243 17.870413 -2.873372 17.069173 -33.662824 13.518513 132.203369 26.609748 -76.760266 -66.870071 -30.793840 -32.198029 -36.250823 70.877190 9.612654 -6.945996 -53.716844 -149.236410 0.658300 -5.189500 -14.450000 157.995923 -73.302369 -117.377403 13.594257 -71.233961 -25.902285 -2.227324 -48.961592 -154.719706 -65.126374 -43.124335 33.153680 -0.043300 -1.343500 3.694400 2.051840 -1.477993 -15.467884 121.178220 -11.714624 107.449448 -54.998241 5.488589 19.121459 106.579009 21.684899 -15.088854 -56.046177 20.350756 66.523808 -8.632200 3.321100 9.288900 -95.042295 -3.948451 -77.733044 155.365691 16.184222 144.792884 -169.971238 -44.107306 -22.650109 22.344935 49.414450 -42.070173 54.557156 18.072852 -7.408000 -7.125000 0.000000 0.000000 -5.693000 7.563300 4.919100 -168.108963 -38.990480 71.376130 47.966645 -15.100379 -175.692973 58.125250 14.835094 -159.137591 54.279757 -26.933222 -112.559334 17.679587 52.072386 -19.909099 7.125000 0.000000 0.000000 2.038300 12.078500 2.421000 
15.250165 17.873462 -2.943238 -142.599912 -27.780968 -96.297860 122.105901 -36.981961 70.634614 -1.696034 -11.631788 132.975822 178.027145 -60.222221 76.429861 137.953399 -48.415915 74.438775 0.630800 -5.081900 -14.142200 -115.961642 27.182052 -169.054381 -140.687389 -71.691037 2.629955 -163.898212 -14.609211 -79.365069 112.311025 -48.224862 99.833974 -0.013500 -0.751300 2.064700 30.747802 -1.884121 54.168269 138.060479 -46.864394 -147.868871 80.708840 -83.286868 163.926679 132.908489 60.596552 50.292569 14.053345 16.837788 133.578843 -8.625400 3.402600 9.343100 0.078905 -43.953010 -86.653124 -160.965035 -50.818366 107.563595 173.146040 47.468844 -11.266127 -145.542444 -12.443474 -1.590294 -116.275805 8.186521 -7.400499 -7.125000 0.000000 0.000000 -5.967000 7.150300 5.206900 53.189896 81.191860 -125.638972 -62.052731 -54.565573 -89.282601 -132.126963 48.228948 -148.289900 -60.348893 19.314733 -152.847519 27.111843 -22.323915 -19.436705 7.125000 0.000000 0.000000 2.203100 11.610000 2.603100 
15.576206 17.867640 -3.006173 97.136714 30.682679 -56.568474 -84.180897 28.897169 167.257249 -10.970588 -24.606807 80.468134 170.278911 -60.793368 -124.480006 110.501003 0.237744 -24.910831 0.593800 -4.933500 -13.719000 -35.821988 49.679366 61.880501 -59.216899 45.977456 1.422200 -171.455875 -72.934620 -95.609671 -5.238919 -4.186324 57.896718 -0.008000 -0.576700 1.584600 13.489132 -6.142880 96.475757 155.553408 -82.849588 -136.567215 -27.052746 -32.298039 135.139596 -110.414634 -51.035454 -86.504031 178.558253 -17.504617 -160.847120 -8.606000 3.337400 9.285300 98.230445 -39.125016 68.299034 146.342115 4.741167 -156.600595 171.902614 -17.294028 46.391586 -63.683142 24.530784 58.117454 14.349253 74.341455 -7.343201 -7.125000 0.000000 0.000000 -6.213400 6.910600 5.453700 -147.223628 -22.427619 -42.600655 -16.192617 35.382317 160.543681 177.931484 -12.754273 -173.286872 145.977404 -80.103439 -1.839675 -154.301494 43.027840 161.236200 7.125000 0.000000 0.000000 2.504900 11.033200 2.940500 
15.901415 17.869026 -3.065503 -123.402045 -10.351862 -119.252642 -18.469794 -11.758413 -29.324098 -39.007107 55.900185 -32.828351 -151.432714 -68.808758 85.998054 32.527542 27.303717 117.147830 0.568800 -4.830200 -13.425000 169.523447 49.781749 -2.176102 -77.489311 -87.105456 80.254104 -175.274090 14.350332 59.853840 86.648066 22.540779 72.230967 -0.002500 -0.324300 0.891000 -161.297008 -22.963200 -121.425244 -93.787558 80.697111 -63.809872 60.780857 22.948643 -6.028083 -38.217896 15.125003 151.546459 -9.352128 71.665983 -124.581380 -8.568000 3.257900 9.279300 97.072554 -57.776293 -98.315389 74.298975 -30.517639 17.797261 2.419872 -62.162575 19.603045 171.406231 25.127710 50.289571 -61.593577 -9.580317 -7.147294 -7.125000 0.000000 0.000000 -6.828400 6.426100 6.065500 53.361988 55.978553 -131.972918 10.960129 -2.672896 65.744977 147.067534 58.379529 9.781627 -3.133400 -5.589502 159.185267 -26.379867 44.635604 -18.057400 7.125000 0.000000 0.000000 2.674000 10.162400 3.106900 
16.210267 17.864590 -3.135924 177.424345 52.657938 112.831305 -159.487736 -63.972818 -115.151031 -106.847455 -56.806643 -134.813785 -101.225624 11.061392 -128.163193 -14.586594 31.588043 24.048815 0.522300 -4.631700 -12.861100 -36.237923 34.191648 69.484836 -1.266986 -33.000220 -41.898359 -11.508989 -73.923448 70.718300 -3.667360 -19.564503 70.885538 -0.001800 -0.271900 0.747100 -43.588342 19.769458 160.267456 93.857257 24.605304 -143.157755 -92.943638 15.196932 -117.316457 -164.979853 69.342464 -32.047552 94.012152 61.417680 -129.601256 -8.601900 3.278700 9.196800 75.282216 -0.601468 -108.697142 -142.201599 -77.911044 -117.818855 49.381809 -21.310901 179.442650 78.439880 -17.589597 110.679580 23.848783 15.143251 172.346099 -7.125000 0.000000 0.000000 -5.886700 6.563200 5.203500 -67.669383 -87.546026 -23.978615 -131.873103 63.580950 71.245848 109.906038 24.983923 24.432806 -52.103276 24.662921 171.733033 21.076128 3.135133 -17.533299 7.125000 0.000000 0.000000 2.879400 9.629500 3.324300 
